<svg xmlns="http://www.w3.org/2000/svg" viewBox="0 0 64 64" fill="none">
  <defs>
    <linearGradient id="shieldOuter" x1="11" y1="6" x2="55" y2="58" gradientUnits="userSpaceOnUse">
      <stop offset="0%" stop-color="#0F3D7A"/>
      <stop offset="52%" stop-color="#1D74D7"/>
      <stop offset="100%" stop-color="#0B2E63"/>
    </linearGradient>
    <linearGradient id="shieldInner" x1="18" y1="12" x2="46" y2="51" gradientUnits="userSpaceOnUse">
      <stop offset="0%" stop-color="#F8FCFF"/>
      <stop offset="100%" stop-color="#E7F3FF"/>
    </linearGradient>
    <linearGradient id="signalArc" x1="16" y1="42" x2="53" y2="18" gradientUnits="userSpaceOnUse">
      <stop offset="0%" stop-color="#1658B4"/>
      <stop offset="55%" stop-color="#22A5E6"/>
      <stop offset="100%" stop-color="#39C2F0"/>
    </linearGradient>
    <linearGradient id="goldAccent" x1="44" y1="48" x2="50" y2="20" gradientUnits="userSpaceOnUse">
      <stop offset="0%" stop-color="#DA841F"/>
      <stop offset="100%" stop-color="#F7B046"/>
    </linearGradient>
    <filter id="logoShadow" x="-20%" y="-20%" width="140%" height="140%">
      <feDropShadow dx="0" dy="3" stdDeviation="3" flood-color="#0C2854" flood-opacity="0.22"/>
    </filter>
  </defs>

  <g filter="url(#logoShadow)">
    <path d="M32 4.5 54.5 12.7v20.2c0 13.3-9.5 22-22.5 27.1C19 54.9 9.5 46.2 9.5 32.9V12.7L32 4.5Z" fill="url(#shieldOuter)"/>
    <path d="M32 10 49.3 16.3v16.1c0 10.4-7.3 17.4-17.3 21.4-10-4-17.3-11-17.3-21.4V16.3L32 10Z" fill="url(#shieldInner)"/>
    <path d="M32 9.1 50 15.7v16.7c0 10.8-7.6 18.1-18 22.2-10.4-4.1-18-11.4-18-22.2V15.7L32 9.1Z" stroke="#FFFFFF" stroke-opacity=".22" stroke-width="1.1"/>

    <path d="M22.5 20.5h19" stroke="#0F3D7A" stroke-width="2.2" stroke-linecap="round"/>
    <path d="M25.5 25.6h13" stroke="#0F3D7A" stroke-opacity=".85" stroke-width="1.9" stroke-linecap="round"/>
    <path d="M32 16.8v3.7" stroke="#0F3D7A" stroke-width="2.1" stroke-linecap="round"/>
    <path d="M24.6 20.5 21 43.6M39.4 20.5 43 43.6" stroke="#0F3D7A" stroke-width="2" stroke-linecap="round"/>
    <path d="M24.6 20.5 32 31.7 39.4 20.5" stroke="#0F3D7A" stroke-opacity=".7" stroke-width="1.7" stroke-linecap="round" stroke-linejoin="round"/>
    <path d="M23.1 30.6 32 37.4 40.9 30.6" stroke="#0F3D7A" stroke-opacity=".55" stroke-width="1.6" stroke-linecap="round" stroke-linejoin="round"/>
    <path d="M21.2 43.7h21.6" stroke="#0F3D7A" stroke-width="2.1" stroke-linecap="round"/>
    <path d="M25 43.7 20.9 48.2M39 43.7l4.1 4.5" stroke="#0F3D7A" stroke-opacity=".85" stroke-width="1.8" stroke-linecap="round"/>

    <path d="M15.2 42.4c5.3-10.2 13-15.9 23.1-17.1 4.7-.5 9.5.1 14.6 1.9" stroke="#0F3D7A" stroke-opacity=".16" stroke-width="6.4" stroke-linecap="round"/>
    <path d="M15.8 41.4c5.5-9 12.8-14 21.8-15.1 4.3-.5 8.9.1 14 1.8" stroke="url(#signalArc)" stroke-width="5.3" stroke-linecap="round"/>
    <path d="m46.8 19.2 7-1.2-2.8 6.5" stroke="url(#signalArc)" stroke-width="2.8" stroke-linecap="round" stroke-linejoin="round"/>

    <circle cx="18.2" cy="42.2" r="4.4" fill="#FFFFFF" fill-opacity=".9"/>
    <circle cx="18.2" cy="42.2" r="2.9" fill="url(#goldAccent)"/>
    <path d="M45.3 47.9c2.7-6.9 3.8-13.7 3.5-20.2" stroke="url(#goldAccent)" stroke-width="3.1" stroke-linecap="round"/>
  </g>
</svg>
